<?xml version="1.0" encoding="iso-8859-1"?>
<!-- Generator: Adobe Illustrator 19.0.0, SVG Export Plug-In . SVG Version: 6.00 Build 0)  -->
<svg xmlns="http://www.w3.org/2000/svg" xmlns:xlink="http://www.w3.org/1999/xlink" version="1.1" id="Layer_1" x="0px" y="0px" viewBox="0 0 512 512" style="enable-background:new 0 0 512 512;" xml:space="preserve">
<path style="fill:#B0BEC5;" d="M411.895,30.931H107.301c-10.622,0-19.233,8.611-19.233,19.233v442.604  c0,10.622,8.611,19.233,19.233,19.233h304.595c23.729,0,42.966-19.237,42.966-42.966V73.897  C454.862,50.167,435.625,30.931,411.895,30.931z"/>
<path style="fill:#1EB8E8;" d="M380.964,0H76.371C65.749,0,57.138,8.611,57.138,19.233v442.604c0,10.622,8.611,19.233,19.233,19.233  h304.595c23.729,0,42.966-19.237,42.966-42.966V42.967C423.931,19.237,404.695,0,380.964,0z"/>
<path style="opacity:0.1;enable-background:new    ;" d="M96.401,461.837V19.233C96.401,8.611,105.012,0,115.633,0H76.371  C65.749,0,57.138,8.611,57.138,19.233v442.604c0,10.622,8.611,19.233,19.233,19.233h39.263  C105.012,481.07,96.401,472.459,96.401,461.837z"/>
<g>
	<path style="fill:#ECEFF1;" d="M341.054,350.12H140.015c-4.28,0-7.749,3.47-7.749,7.749s3.47,7.749,7.749,7.749h201.038   c4.28,0,7.749-3.47,7.749-7.749S345.333,350.12,341.054,350.12z"/>
	<path style="fill:#ECEFF1;" d="M341.054,387.272H140.015c-4.28,0-7.749,3.47-7.749,7.749s3.47,7.749,7.749,7.749h201.038   c4.28,0,7.749-3.47,7.749-7.749S345.333,387.272,341.054,387.272z"/>
	<path style="fill:#ECEFF1;" d="M145.277,260.109c0.143,0.266,0.298,0.527,0.474,0.78c0.192,0.275,0.4,0.532,0.619,0.774   c21.052,29.296,55.416,48.415,94.164,48.415c38.773,0,73.155-19.142,94.205-48.469c0.204-0.227,0.399-0.466,0.578-0.722   c0.174-0.248,0.327-0.504,0.467-0.765c13.005-18.729,20.641-41.455,20.641-65.933s-7.636-47.204-20.641-65.933   c-0.141-0.26-0.293-0.517-0.467-0.765c-0.179-0.256-0.374-0.494-0.578-0.721C313.69,97.443,279.307,78.3,240.534,78.3   c-38.766,0-73.144,19.136-94.193,48.455c-0.208,0.231-0.407,0.473-0.59,0.734c-0.177,0.253-0.332,0.515-0.474,0.779   c-12.999,18.727-20.632,41.448-20.632,65.921S132.278,241.382,145.277,260.109z M154.457,142.579   c8.244,4.74,17.908,8.733,28.54,11.858c-1.878,10.052-3.054,20.786-3.427,32.001H140.44   C141.663,170.495,146.63,155.585,154.457,142.579z M340.629,186.439H301.5c-0.373-11.215-1.55-21.948-3.427-32.001   c10.633-3.127,20.297-7.118,28.541-11.858C334.439,155.585,339.406,170.495,340.629,186.439z M326.612,245.797   c-8.244-4.74-17.908-8.732-28.541-11.858c1.878-10.053,3.054-20.786,3.427-32.001h39.129   C339.406,217.882,334.439,232.793,326.612,245.797z M232.785,226.202c-12.002,0.415-23.705,1.789-34.706,4.017   c-1.631-8.996-2.64-18.495-2.991-28.281h37.696v24.263H232.785z M232.785,241.707v51.231c-8.362-3.479-16.466-12.417-23.024-25.712   c-3.261-6.609-6.007-13.994-8.231-21.939C211.392,243.325,221.93,242.104,232.785,241.707z M248.283,292.939v-51.231   c10.855,0.397,21.393,1.617,31.255,3.58c-2.222,7.944-4.97,15.33-8.231,21.939C264.749,280.522,256.645,289.46,248.283,292.939z    M248.283,226.202v-24.263h37.696c-0.35,9.786-1.359,19.285-2.991,28.281C271.989,227.99,260.285,226.617,248.283,226.202z    M285.98,186.439h-37.696v-24.263c12.002-0.415,23.705-1.789,34.706-4.017C284.621,167.155,285.629,176.653,285.98,186.439z    M248.283,146.67V95.439c8.362,3.479,16.466,12.417,23.024,25.712c3.261,6.609,6.007,13.994,8.231,21.939   C269.676,145.053,259.138,146.273,248.283,146.67z M232.785,95.439v51.231c-10.855-0.397-21.393-1.617-31.255-3.58   c2.222-7.945,4.97-15.33,8.231-21.939C216.319,107.856,224.423,98.917,232.785,95.439z M232.785,162.176v24.263h-37.696   c0.35-9.786,1.359-19.284,2.991-28.281C209.08,160.387,220.783,161.76,232.785,162.176z M179.569,201.937   c0.373,11.215,1.55,21.948,3.427,32.001c-10.633,3.127-20.297,7.118-28.54,11.858c-7.827-13.004-12.793-27.916-14.017-43.86   H179.569z M163.494,258.48c6.692-3.717,14.451-6.894,22.981-9.458c4.251,15.329,10.255,28.522,17.543,38.682   C188.156,281.488,174.248,271.345,163.494,258.48z M277.05,287.704c7.287-10.16,13.292-23.353,17.543-38.682   c8.529,2.564,16.289,5.743,22.981,9.458C306.82,271.345,292.914,281.488,277.05,287.704z M317.575,129.898   c-6.692,3.717-14.452,6.894-22.981,9.458c-4.251-15.329-10.255-28.522-17.543-38.682   C292.914,106.89,306.82,117.032,317.575,129.898z M204.019,100.674c-7.288,10.16-13.292,23.353-17.543,38.682   c-8.529-2.564-16.289-5.743-22.981-9.459C174.248,117.032,188.156,106.89,204.019,100.674z"/>
</g>
<g>
</g>
<g>
</g>
<g>
</g>
<g>
</g>
<g>
</g>
<g>
</g>
<g>
</g>
<g>
</g>
<g>
</g>
<g>
</g>
<g>
</g>
<g>
</g>
<g>
</g>
<g>
</g>
<g>
</g>
</svg>
